# xmcd
#
# Track frame offsets:
# 150
# 17756
# 32399
# 45381
# 66842
# 76655
# 96290
# 116545
# 133183
# 143805
# 154136
# 176339
# 196341
#
# Disc length: 2721 seconds
#
#
# Revision: 0
# Processed by: cddbd v1.5.2PL0 Copyright (c) Steve Scherf et al.
# Submitted via: FreeRIP 2.96 
#
DISCID=a00a9f0d
DTITLE=Williams Wetsox - Da Blues des is a Deife
DYEAR=1998
DGENRE=Blues
TTITLE0=s'zwoate Moi
TTITLE1=wer hod d`Macht
TTITLE2=da hoibe simme Zug
TTITLE3=es is wohr
TTITLE4=Samstag Nacht
TTITLE5=Jazzschui
TTITLE6=da Willi (vo Geitau)
TTITLE7=Br‰uwastl spezial
TTITLE8=Leid laﬂt's eich Zeit
TTITLE9=Katz und Maus
TTITLE10=so alloa
TTITLE11=der Bach
TTITLE12=da Faschingdienstagsmorg'n
EXTD=
EXTT0=
EXTT1=
EXTT2=
EXTT3=
EXTT4=
EXTT5=
EXTT6=
EXTT7=
EXTT8=
EXTT9=
EXTT10=
EXTT11=
EXTT12=
PLAYORDER=
